<svg width="189" height="106" viewBox="0 0 189 106" fill="none" xmlns="http://www.w3.org/2000/svg">
<mask id="mask0_13_7811" style="mask-type:alpha" maskUnits="userSpaceOnUse" x="22" y="29" width="47" height="50">
<path d="M44.9053 29.8883C43.4593 30.4007 42.3734 31.5951 41.2636 32.6089C39.4594 34.2562 37.655 35.9047 35.8517 37.5521C32.2729 40.8217 28.6948 44.0902 25.1171 47.3598C24.8805 47.5739 24.6453 47.7884 24.4116 48.0039C24.4102 48.005 24.4095 48.006 24.408 48.0083C23.0551 49.3411 22.5715 50.9064 22.5553 52.763C22.5408 54.387 22.3969 56.0966 23.1175 57.6045C23.7298 58.8837 24.9362 59.9573 25.8812 60.9936C29.4511 64.9146 33.023 68.8348 36.5936 72.7555C37.6435 73.9083 38.6701 75.0853 39.7439 76.2144C41.9665 78.5495 45.3896 78.8053 47.8569 76.6784C50.8358 74.1094 53.6775 71.3603 56.5819 68.7062C59.796 65.7712 63.0441 62.8698 66.2238 59.8978C68.3733 57.8907 68.3708 55.3216 68.2596 52.5725C68.177 50.509 67.1198 49.1347 65.8163 47.7033C62.3848 43.935 58.9506 40.1659 55.5199 36.3983C53.1917 33.8433 50.4272 29.5725 46.6815 29.5725C46.1131 29.5725 45.521 29.6705 44.9053 29.8883ZM41.8709 35.0122C43.0632 33.9238 44.1832 32.874 45.8695 32.5959C48.1666 32.2173 50.0145 33.3117 51.4952 34.9379C54.4471 38.1791 57.3973 41.4192 60.3501 44.6607C62.0267 46.5006 63.7023 48.341 65.3781 50.181C65.7997 50.6428 66.2265 51.0993 66.641 51.5677C66.779 51.7245 66.9223 51.8746 67.0497 52.0391C67.3438 52.4199 67.5911 52.8332 67.7823 53.2736C67.8806 53.4994 67.9588 53.8107 68.0201 54.0758C67.5826 55.5198 66.621 56.5786 65.4616 57.6367C63.9872 58.9832 62.5139 60.3311 61.0389 61.6768C57.3017 65.0906 53.5664 68.5026 49.8314 71.9167C48.9359 72.7341 48.0448 73.7153 47.0075 74.36C44.5025 75.9187 41.538 75.1912 39.614 73.1141C36.7026 69.9709 33.8421 66.7757 30.9577 63.6092C29.1595 61.6339 27.3607 59.6601 25.5611 57.6848C25.1145 57.1938 24.663 56.7087 24.2223 56.213C24.1163 56.0947 24.0086 55.9783 23.9074 55.8567C23.5538 55.4281 23.2592 54.969 23.0373 54.4603C22.9358 54.227 22.8565 53.9031 22.7937 53.6307C23.0813 52.6236 23.6188 51.7419 24.4116 50.9622C24.4224 50.9514 24.432 50.937 24.4401 50.9186C24.4327 50.937 24.4231 50.9525 24.4116 50.9622C30.2311 45.6463 36.0518 40.3293 41.8709 35.0122Z" fill="white"/>
</mask>
<g mask="url(#mask0_13_7811)">
<path d="M44.9053 29.8883C43.4593 30.4007 42.3734 31.5951 41.2636 32.6089C39.4594 34.2562 37.655 35.9047 35.8517 37.5521C32.2729 40.8217 28.6948 44.0902 25.1171 47.3598C24.8805 47.5739 24.6453 47.7884 24.4116 48.0039C24.4102 48.005 24.4095 48.006 24.408 48.0083C23.0551 49.3411 22.5715 50.9064 22.5553 52.763C22.5408 54.387 22.3969 56.0966 23.1175 57.6045C23.7298 58.8837 24.9362 59.9573 25.8812 60.9936C29.4511 64.9146 33.023 68.8348 36.5936 72.7555C37.6435 73.9083 38.6701 75.0853 39.7439 76.2144C41.9665 78.5495 45.3896 78.8053 47.8569 76.6784C50.8358 74.1094 53.6775 71.3603 56.5819 68.7062C59.796 65.7712 63.0441 62.8698 66.2238 59.8978C68.3733 57.8907 68.3708 55.3216 68.2596 52.5725C68.177 50.509 67.1198 49.1347 65.8163 47.7033C62.3848 43.935 58.9506 40.1659 55.5199 36.3983C53.1917 33.8433 50.4272 29.5725 46.6815 29.5725C46.1131 29.5725 45.521 29.6705 44.9053 29.8883ZM41.8709 35.0122C43.0632 33.9238 44.1832 32.874 45.8695 32.5959C48.1666 32.2173 50.0145 33.3117 51.4952 34.9379C54.4471 38.1791 57.3973 41.4192 60.3501 44.6607C62.0267 46.5006 63.7023 48.341 65.3781 50.181C65.7997 50.6428 66.2265 51.0993 66.641 51.5677C66.779 51.7245 66.9223 51.8746 67.0497 52.0391C67.3438 52.4199 67.5911 52.8332 67.7823 53.2736C67.8806 53.4994 67.9588 53.8107 68.0201 54.0758C67.5826 55.5198 66.621 56.5786 65.4616 57.6367C63.9872 58.9832 62.5139 60.3311 61.0389 61.6768C57.3017 65.0906 53.5664 68.5026 49.8314 71.9167C48.9359 72.7341 48.0448 73.7153 47.0075 74.36C44.5025 75.9187 41.538 75.1912 39.614 73.1141C36.7026 69.9709 33.8421 66.7757 30.9577 63.6092C29.1595 61.6339 27.3607 59.6601 25.5611 57.6848C25.1145 57.1938 24.663 56.7087 24.2223 56.213C24.1163 56.0947 24.0086 55.9783 23.9074 55.8567C23.5538 55.4281 23.2592 54.969 23.0373 54.4603C22.9358 54.227 22.8565 53.9031 22.7937 53.6307C23.0813 52.6236 23.6188 51.7419 24.4116 50.9622C24.4224 50.9514 24.432 50.937 24.4401 50.9186C24.4327 50.937 24.4231 50.9525 24.4116 50.9622C30.2311 45.6463 36.0518 40.3293 41.8709 35.0122Z" fill="url(#paint0_linear_13_7811)"/>
</g>
<mask id="mask1_13_7811" style="mask-type:alpha" maskUnits="userSpaceOnUse" x="9" y="27" width="47" height="51">
<path d="M31.2363 28.8553C30.233 29.5603 29.3577 30.5119 28.4574 31.3341C26.5231 33.1013 24.5888 34.8692 22.6534 36.637C18.9469 40.0228 15.2389 43.4099 11.5319 46.7956C11.3123 46.9979 11.0912 47.2001 10.8708 47.4012C10.8683 47.4026 10.8667 47.4038 10.8656 47.406C9.60243 48.6652 9.34148 50.0804 9.30604 51.7281C9.17942 51.6605 9.10744 52.0165 9.10264 52.3725C9.0982 52.7226 9.16059 53.0746 9.30345 53.0187C9.32855 54.5134 9.4998 55.8555 10.5596 57.1109C11.3499 58.0433 12.2116 58.9254 13.034 59.8272C16.7712 63.9323 20.5098 68.0348 24.2474 72.1399C25.3142 73.3115 26.3556 74.5153 27.4541 75.6595C29.4168 77.7054 32.2681 77.8407 34.4143 75.9863C37.7295 73.1197 40.8986 70.0618 44.1359 67.105C47.4268 64.0975 50.7612 61.1322 54.013 58.0814C55.958 56.2566 55.9569 53.58 55.7277 51.0745C55.5553 49.1562 54.274 47.9691 53.0666 46.6451C49.4039 42.6228 45.7417 38.6016 42.0787 34.5804C40.0171 32.3164 37.1459 27.9795 33.7874 27.9783C32.9654 27.9783 32.1134 28.2397 31.2363 28.8553ZM29.6579 33.1963C31.0229 31.9496 32.3544 30.7888 34.3821 30.9655C36.2973 31.1297 37.408 32.4088 38.5944 33.7127C41.9997 37.4526 45.4061 41.1932 48.8141 44.9328C50.3242 46.5908 51.8332 48.2486 53.3441 49.9062C53.6915 50.2886 54.0499 50.6631 54.3888 51.0545C54.5143 51.1976 54.6442 51.3348 54.7598 51.4875C55.0426 51.8601 55.2703 52.2697 55.4335 52.7078C55.4501 52.7526 55.4641 52.8025 55.4759 52.8543C55.0658 53.7005 54.7432 54.4376 54.013 55.1231C53.6173 55.4946 53.212 55.854 52.8125 56.2199C51.1655 57.7239 49.5172 59.2304 47.8687 60.737C44.0178 64.2539 40.1658 67.7723 36.3153 71.2918C35.4268 72.1011 34.532 73.1167 33.4818 73.7282C31.1455 75.0901 28.7458 74.12 27.0772 72.2893L17.6814 61.9736C15.9937 60.1192 14.3038 58.2648 12.6157 56.4096C11.8063 55.5205 10.8716 54.6591 10.1794 53.6709C9.93318 53.3193 9.73237 52.9371 9.58844 52.5326C9.68436 52.2317 9.74314 51.8853 9.88149 51.6272C10.1411 51.1444 10.4854 50.7432 10.8708 50.3598C10.8822 50.348 10.893 50.3299 10.901 50.3074C10.893 50.3299 10.8822 50.348 10.8708 50.3598C17.1329 44.638 23.3969 38.9162 29.6579 33.1963Z" fill="white"/>
</mask>
<g mask="url(#mask1_13_7811)">
<path d="M31.2363 28.8553C30.233 29.5603 29.3577 30.5119 28.4574 31.3341C26.5231 33.1013 24.5888 34.8692 22.6534 36.637C18.9469 40.0228 15.2389 43.4099 11.5319 46.7956C11.3123 46.9979 11.0912 47.2001 10.8708 47.4012C10.8683 47.4026 10.8667 47.4038 10.8656 47.406C9.60243 48.6652 9.34148 50.0804 9.30604 51.7281C9.17942 51.6605 9.10744 52.0165 9.10264 52.3725C9.0982 52.7226 9.16059 53.0746 9.30345 53.0187C9.32855 54.5134 9.4998 55.8555 10.5596 57.1109C11.3499 58.0433 12.2116 58.9254 13.034 59.8272C16.7712 63.9323 20.5098 68.0348 24.2474 72.1399C25.3142 73.3115 26.3556 74.5153 27.4541 75.6595C29.4168 77.7054 32.2681 77.8407 34.4143 75.9863C37.7295 73.1197 40.8986 70.0618 44.1359 67.105C47.4268 64.0975 50.7612 61.1322 54.013 58.0814C55.958 56.2566 55.9569 53.58 55.7277 51.0745C55.5553 49.1562 54.274 47.9691 53.0666 46.6451C49.4039 42.6228 45.7417 38.6016 42.0787 34.5804C40.0171 32.3164 37.1459 27.9795 33.7874 27.9783C32.9654 27.9783 32.1134 28.2397 31.2363 28.8553ZM29.6579 33.1963C31.0229 31.9496 32.3544 30.7888 34.3821 30.9655C36.2973 31.1297 37.408 32.4088 38.5944 33.7127C41.9997 37.4526 45.4061 41.1932 48.8141 44.9328C50.3242 46.5908 51.8332 48.2486 53.3441 49.9062C53.6915 50.2886 54.0499 50.6631 54.3888 51.0545C54.5143 51.1976 54.6442 51.3348 54.7598 51.4875C55.0426 51.8601 55.2703 52.2697 55.4335 52.7078C55.4501 52.7526 55.4641 52.8025 55.4759 52.8543C55.0658 53.7005 54.7432 54.4376 54.013 55.1231C53.6173 55.4946 53.212 55.854 52.8125 56.2199C51.1655 57.7239 49.5172 59.2304 47.8687 60.737C44.0178 64.2539 40.1658 67.7723 36.3153 71.2918C35.4268 72.1011 34.532 73.1167 33.4818 73.7282C31.1455 75.0901 28.7458 74.12 27.0772 72.2893L17.6814 61.9736C15.9937 60.1192 14.3038 58.2648 12.6157 56.4096C11.8063 55.5205 10.8716 54.6591 10.1794 53.6709C9.93318 53.3193 9.73237 52.9371 9.58844 52.5326C9.68436 52.2317 9.74314 51.8853 9.88149 51.6272C10.1411 51.1444 10.4854 50.7432 10.8708 50.3598C10.8822 50.348 10.893 50.3299 10.901 50.3074C10.893 50.3299 10.8822 50.348 10.8708 50.3598C17.1329 44.638 23.3969 38.9162 29.6579 33.1963Z" fill="url(#paint1_linear_13_7811)"/>
</g>
<mask id="mask2_13_7811" style="mask-type:alpha" maskUnits="userSpaceOnUse" x="28" y="30" width="47" height="49">
<path d="M52.8743 30.0882H52.8472C52.2873 30.0912 51.7052 30.191 51.099 30.4055C49.6505 30.9168 48.566 32.1109 47.4553 33.1257C45.6509 34.7734 43.8476 36.4216 42.0448 38.0693C38.4667 41.3385 34.8879 44.6074 31.3097 47.8759C31.0746 48.0911 30.8384 48.3066 30.6043 48.5207C30.6033 48.5221 30.6021 48.5233 30.6006 48.5244C29.2478 49.8568 28.766 51.425 28.7479 53.2802C28.7342 54.9039 28.5896 56.6141 29.312 58.1206C29.9236 59.4013 31.1304 60.4731 32.0731 61.5112C35.6453 65.4315 39.2156 69.3521 42.7856 73.2724C43.8373 74.4244 44.8628 75.6037 45.9381 76.7332C48.1584 79.0667 51.5823 79.3217 54.0499 77.1942C57.0286 74.6255 59.8717 71.8775 62.7761 69.2246C65.9898 66.288 69.2368 63.3878 72.4166 60.4165C74.5661 58.4068 74.5634 55.8389 74.4538 53.0898C74.3711 51.0262 73.3124 49.6508 72.009 48.2213C68.5775 44.4525 65.1452 40.6834 61.7133 36.9155C59.3863 34.3605 56.621 30.0894 52.8743 30.0882ZM48.0625 35.5295C49.2544 34.4411 50.3774 33.3901 52.0621 33.112C54.3582 32.7346 56.2076 33.8278 57.6867 35.454C60.6398 38.6952 63.5911 41.9364 66.5428 45.1779C68.2194 47.0179 69.895 48.8582 71.5704 50.6971C71.9913 51.1596 72.4203 51.6177 72.8337 52.0853C72.9732 52.2403 73.1149 52.3918 73.2427 52.5574C73.5365 52.936 73.7838 53.3493 73.9765 53.7907C74.0733 54.0166 74.1515 54.329 74.2117 54.5941C73.7743 56.0378 72.8111 57.097 71.6546 58.1536C70.18 59.5018 68.7052 60.8472 67.2316 62.1951C63.4955 65.6063 59.7594 69.0208 56.0234 72.4335C55.1286 73.2514 54.2374 74.2325 53.2013 74.8772C50.6952 76.437 47.7306 75.7069 45.8067 73.631C42.8941 70.4871 40.0347 67.294 37.1503 64.1253C35.3523 62.1511 33.5549 60.1758 31.7553 58.2024C31.3087 57.7121 30.8561 57.2245 30.4143 56.7302C30.308 56.6104 30.2016 56.4969 30.1001 56.3724C29.7476 55.9457 29.4511 55.4865 29.2301 54.976C29.1285 54.7431 29.0491 54.4188 28.9879 54.1467C29.2751 53.1394 29.8103 52.258 30.6043 51.4794C30.6176 51.4661 30.6283 51.4487 30.6364 51.425C30.6283 51.4487 30.6176 51.4676 30.6043 51.4794C36.4239 46.162 42.2434 40.8454 48.0625 35.5295Z" fill="white"/>
</mask>
<g mask="url(#mask2_13_7811)">
<path d="M52.8743 30.0882H52.8472C52.2873 30.0912 51.7052 30.191 51.099 30.4055C49.6505 30.9168 48.566 32.1109 47.4553 33.1257C45.6509 34.7734 43.8476 36.4216 42.0448 38.0693C38.4667 41.3385 34.8879 44.6074 31.3097 47.8759C31.0746 48.0911 30.8384 48.3066 30.6043 48.5207C30.6033 48.5221 30.6021 48.5233 30.6006 48.5244C29.2478 49.8568 28.766 51.425 28.7479 53.2802C28.7342 54.9039 28.5896 56.6141 29.312 58.1206C29.9236 59.4013 31.1304 60.4731 32.0731 61.5112C35.6453 65.4315 39.2156 69.3521 42.7856 73.2724C43.8373 74.4244 44.8628 75.6037 45.9381 76.7332C48.1584 79.0667 51.5823 79.3217 54.0499 77.1942C57.0286 74.6255 59.8717 71.8775 62.7761 69.2246C65.9898 66.288 69.2368 63.3878 72.4166 60.4165C74.5661 58.4068 74.5634 55.8389 74.4538 53.0898C74.3711 51.0262 73.3124 49.6508 72.009 48.2213C68.5775 44.4525 65.1452 40.6834 61.7133 36.9155C59.3863 34.3605 56.621 30.0894 52.8743 30.0882ZM48.0625 35.5295C49.2544 34.4411 50.3774 33.3901 52.0621 33.112C54.3582 32.7346 56.2076 33.8278 57.6867 35.454C60.6398 38.6952 63.5911 41.9364 66.5428 45.1779C68.2194 47.0179 69.895 48.8582 71.5704 50.6971C71.9913 51.1596 72.4203 51.6177 72.8337 52.0853C72.9732 52.2403 73.1149 52.3918 73.2427 52.5574C73.5365 52.936 73.7838 53.3493 73.9765 53.7907C74.0733 54.0166 74.1515 54.329 74.2117 54.5941C73.7743 56.0378 72.8111 57.097 71.6546 58.1536C70.18 59.5018 68.7052 60.8472 67.2316 62.1951C63.4955 65.6063 59.7594 69.0208 56.0234 72.4335C55.1286 73.2514 54.2374 74.2325 53.2013 74.8772C50.6952 76.437 47.7306 75.7069 45.8067 73.631C42.8941 70.4871 40.0347 67.294 37.1503 64.1253C35.3523 62.1511 33.5549 60.1758 31.7553 58.2024C31.3087 57.7121 30.8561 57.2245 30.4143 56.7302C30.308 56.6104 30.2016 56.4969 30.1001 56.3724C29.7476 55.9457 29.4511 55.4865 29.2301 54.976C29.1285 54.7431 29.0491 54.4188 28.9879 54.1467C29.2751 53.1394 29.8103 52.258 30.6043 51.4794C30.6176 51.4661 30.6283 51.4487 30.6364 51.425C30.6283 51.4487 30.6176 51.4676 30.6043 51.4794C36.4239 46.162 42.2434 40.8454 48.0625 35.5295Z" fill="url(#paint2_linear_13_7811)"/>
</g>
<mask id="mask3_13_7811" style="mask-type:alpha" maskUnits="userSpaceOnUse" x="15" y="28" width="48" height="50">
<path d="M37.4268 29.3725C36.4261 30.0764 35.552 31.028 34.6501 31.8517C32.7148 33.6185 30.7808 35.3867 28.845 37.1543C25.1385 40.54 21.4327 43.9272 17.7261 47.3114C17.505 47.5136 17.2839 47.7158 17.0635 47.9173C17.0621 47.9185 17.061 47.921 17.0584 47.9222C15.7952 49.1813 15.5342 50.5965 15.4973 52.2447C15.3737 52.1774 15.3001 52.5337 15.2953 52.8886C15.291 53.2402 15.3537 53.5903 15.4961 53.536C15.5213 55.0307 15.6915 56.3723 16.7523 57.6282C17.5416 58.5621 18.4043 59.4412 19.2267 60.344C22.9643 64.4484 26.7015 68.552 30.4401 72.656C31.5084 73.8276 32.5483 75.0325 33.6461 76.1767C35.6085 78.2226 38.4608 78.3565 40.607 76.5024C43.9233 73.6358 47.0928 70.5791 50.3275 67.6219C53.6195 64.6148 56.954 61.6483 60.2046 58.5986C62.1518 56.7753 62.1496 54.0957 61.9215 51.5902C61.7465 49.6723 60.4674 48.4863 59.2596 47.1613C55.5978 43.14 51.9348 39.1185 48.2729 35.0977C46.2098 32.8336 43.3386 28.4967 39.9805 28.4952C39.1569 28.4952 38.305 28.757 37.4268 29.3725ZM35.8517 33.712C37.2156 32.4673 38.5483 31.3071 40.5738 31.4813C42.4888 31.648 43.6007 32.9271 44.7872 34.2289C48.1939 37.9698 51.6003 41.7093 55.0056 45.45C56.5158 47.1065 58.026 48.7662 59.5362 50.4235C59.8842 50.8057 60.2426 51.181 60.5815 51.5704C60.7056 51.716 60.8369 51.8535 60.9514 52.0047C61.2353 52.3774 61.462 52.787 61.6251 53.2247C61.6417 53.2695 61.6557 53.3194 61.6675 53.3715C61.2578 54.2177 60.9359 54.9549 60.2046 55.64C59.81 56.0107 59.4047 56.3716 59.0042 56.7372L54.0606 61.2531C50.2105 64.7711 46.3589 68.2896 42.5091 71.8076C41.6195 72.6195 40.7237 73.6336 39.6757 74.2443C37.3393 75.6062 34.9385 74.6373 33.2703 72.8051C30.1389 69.3665 27.0063 65.9272 23.8753 62.4894C22.1864 60.6353 20.4966 58.7809 18.8074 56.9265C17.999 56.0378 17.0643 55.1763 16.3721 54.1867C16.1248 53.8358 15.9252 53.4543 15.7811 53.0494C15.8772 52.7493 15.9358 52.401 16.0743 52.1433C16.3342 51.6616 16.6767 51.2594 17.0635 50.8761C17.0735 50.8653 17.0834 50.8509 17.0916 50.832C17.0842 50.8509 17.075 50.866 17.0635 50.8761C23.3256 45.1553 29.5882 39.4335 35.8517 33.712Z" fill="white"/>
</mask>
<g mask="url(#mask3_13_7811)">
<path d="M37.4268 29.3725C36.4261 30.0764 35.552 31.028 34.6501 31.8517C32.7148 33.6185 30.7808 35.3867 28.845 37.1543C25.1385 40.54 21.4327 43.9272 17.7261 47.3114C17.505 47.5136 17.2839 47.7158 17.0635 47.9173C17.0621 47.9185 17.061 47.921 17.0584 47.9222C15.7952 49.1813 15.5342 50.5965 15.4973 52.2447C15.3737 52.1774 15.3001 52.5337 15.2953 52.8886C15.291 53.2402 15.3537 53.5903 15.4961 53.536C15.5213 55.0307 15.6915 56.3723 16.7523 57.6282C17.5416 58.5621 18.4043 59.4412 19.2267 60.344C22.9643 64.4484 26.7015 68.552 30.4401 72.656C31.5084 73.8276 32.5483 75.0325 33.6461 76.1767C35.6085 78.2226 38.4608 78.3565 40.607 76.5024C43.9233 73.6358 47.0928 70.5791 50.3275 67.6219C53.6195 64.6148 56.954 61.6483 60.2046 58.5986C62.1518 56.7753 62.1496 54.0957 61.9215 51.5902C61.7465 49.6723 60.4674 48.4863 59.2596 47.1613C55.5978 43.14 51.9348 39.1185 48.2729 35.0977C46.2098 32.8336 43.3386 28.4967 39.9805 28.4952C39.1569 28.4952 38.305 28.757 37.4268 29.3725ZM35.8517 33.712C37.2156 32.4673 38.5483 31.3071 40.5738 31.4813C42.4888 31.648 43.6007 32.9271 44.7872 34.2289C48.1939 37.9698 51.6003 41.7093 55.0056 45.45C56.5158 47.1065 58.026 48.7662 59.5362 50.4235C59.8842 50.8057 60.2426 51.181 60.5815 51.5704C60.7056 51.716 60.8369 51.8535 60.9514 52.0047C61.2353 52.3774 61.462 52.787 61.6251 53.2247C61.6417 53.2695 61.6557 53.3194 61.6675 53.3715C61.2578 54.2177 60.9359 54.9549 60.2046 55.64C59.81 56.0107 59.4047 56.3716 59.0042 56.7372L54.0606 61.2531C50.2105 64.7711 46.3589 68.2896 42.5091 71.8076C41.6195 72.6195 40.7237 73.6336 39.6757 74.2443C37.3393 75.6062 34.9385 74.6373 33.2703 72.8051C30.1389 69.3665 27.0063 65.9272 23.8753 62.4894C22.1864 60.6353 20.4966 58.7809 18.8074 56.9265C17.999 56.0378 17.0643 55.1763 16.3721 54.1867C16.1248 53.8358 15.9252 53.4543 15.7811 53.0494C15.8772 52.7493 15.9358 52.401 16.0743 52.1433C16.3342 51.6616 16.6767 51.2594 17.0635 50.8761C17.0735 50.8653 17.0834 50.8509 17.0916 50.832C17.0842 50.8509 17.075 50.866 17.0635 50.8761C23.3256 45.1553 29.5882 39.4335 35.8517 33.712Z" fill="url(#paint3_linear_13_7811)"/>
</g>
<path fill-rule="evenodd" clip-rule="evenodd" d="M86.0847 47.7384C86.0847 47.3422 86.0541 46.9562 85.9939 46.5824C85.9327 46.2083 85.8271 45.8774 85.6773 45.5909C85.5259 45.3018 85.3262 45.0711 85.0781 44.8947C84.8301 44.7195 84.5214 44.6319 84.1504 44.6319C83.9659 44.6319 83.7842 44.6567 83.6045 44.7091C83.4251 44.7613 83.2443 44.8474 83.0578 44.968C82.8733 45.0888 82.6806 45.2452 82.4823 45.4342C82.2815 45.6241 82.0708 45.8626 81.844 46.1506V49.2483C82.2375 49.7263 82.6134 50.0913 82.9711 50.3407C83.3303 50.5914 83.7027 50.7171 84.0903 50.7171C84.4484 50.7171 84.754 50.6295 85.0094 50.458C85.2638 50.2853 85.4694 50.0554 85.6289 49.7715C85.788 49.486 85.9042 49.1681 85.9763 48.8132C86.0479 48.4591 86.0847 48.1019 86.0847 47.7384ZM87.5584 47.5751C87.5584 48.2483 87.4849 48.8531 87.3388 49.3918C87.1918 49.93 86.977 50.3877 86.6924 50.7689C86.4074 51.1475 86.0586 51.438 85.6451 51.6403C85.2306 51.8414 84.7581 51.9415 84.2236 51.9415C83.9755 51.9415 83.7462 51.9172 83.5381 51.8684C83.328 51.8199 83.1227 51.7408 82.9216 51.6318C82.7197 51.522 82.5189 51.3845 82.3177 51.2166C82.1184 51.0495 81.9042 50.8484 81.6798 50.6128V51.5619C81.6798 51.6081 81.6691 51.6484 81.6465 51.6828C81.6241 51.7168 81.5853 51.7456 81.5336 51.7645C81.4815 51.7844 81.4188 51.8011 81.3394 51.8129C81.2627 51.8236 81.1634 51.8307 81.0431 51.8307C80.9283 51.8307 80.8304 51.8236 80.7499 51.8129C80.6695 51.8011 80.603 51.7844 80.5514 51.7645C80.4997 51.7456 80.4653 51.7168 80.4476 51.6828C80.4306 51.6484 80.4225 51.6081 80.4225 51.5619V40.032C80.4225 39.9859 80.4333 39.9455 80.4521 39.9104C80.473 39.8757 80.51 39.8476 80.5642 39.8254C80.6185 39.8014 80.6928 39.7836 80.7839 39.7729C80.8762 39.7611 80.9906 39.7552 81.1291 39.7552C81.2734 39.7552 81.3904 39.7611 81.4815 39.7729C81.5746 39.7836 81.6465 39.8014 81.6975 39.8254C81.7495 39.8476 81.7865 39.8757 81.8097 39.9104C81.8322 39.9455 81.844 39.9859 81.844 40.032V44.6829C82.0733 44.4474 82.2977 44.25 82.5129 44.0888C82.7278 43.9269 82.9397 43.7968 83.1461 43.6947C83.3516 43.5945 83.5584 43.522 83.7666 43.4744C83.9736 43.4285 84.1907 43.406 84.4211 43.406C84.9836 43.406 85.4657 43.5183 85.864 43.7435C86.2631 43.9672 86.5882 44.2677 86.8386 44.6452C87.0892 45.0215 87.2712 45.4637 87.3856 45.9691C87.5004 46.4759 87.5584 47.0109 87.5584 47.5751Z" fill="#1B477D"/>
<path fill-rule="evenodd" clip-rule="evenodd" d="M91.1171 51.5619C91.1171 51.6081 91.1053 51.6473 91.0828 51.6791C91.0588 51.7097 91.0226 51.7382 90.9702 51.7607C90.9182 51.7834 90.8462 51.8011 90.7542 51.8129C90.663 51.8236 90.5461 51.8307 90.4021 51.8307C90.2641 51.8307 90.1493 51.8236 90.0569 51.8129C89.9647 51.8011 89.8919 51.7834 89.8373 51.7607C89.7816 51.7382 89.7451 51.7097 89.7251 51.6791C89.7062 51.6473 89.6956 51.6081 89.6956 51.5619V40.032C89.6956 39.9858 89.7062 39.9455 89.7251 39.9104C89.7451 39.8757 89.7816 39.8476 89.8373 39.8254C89.8919 39.8014 89.9647 39.7836 90.0569 39.7729C90.1493 39.7611 90.2641 39.7552 90.4021 39.7552C90.5461 39.7552 90.663 39.7611 90.7542 39.7729C90.8462 39.7836 90.9182 39.8014 90.9702 39.8254C91.0226 39.8476 91.0588 39.8757 91.0828 39.9104C91.1053 39.9455 91.1171 39.9858 91.1171 40.032V51.5619Z" fill="#1B477D"/>
<path fill-rule="evenodd" clip-rule="evenodd" d="M100.389 51.5619C100.389 51.6081 100.379 51.6473 100.36 51.6791C100.339 51.7098 100.303 51.7382 100.251 51.7608C100.199 51.7834 100.132 51.8011 100.049 51.8129C99.9658 51.8236 99.8638 51.8307 99.7438 51.8307C99.6115 51.8307 99.5037 51.8236 99.4206 51.8129C99.3355 51.8011 99.2703 51.7834 99.2221 51.7608C99.1739 51.7382 99.1399 51.7098 99.1229 51.6791C99.1049 51.6473 99.0974 51.6081 99.0974 51.5619V50.5349C98.6542 51.0236 98.2176 51.3808 97.7867 51.6059C97.3567 51.8307 96.9192 51.9415 96.476 51.9415C95.96 51.9415 95.5253 51.8565 95.1719 51.6828C94.8184 51.5113 94.5321 51.2753 94.3139 50.9796C94.0954 50.6838 93.9392 50.3382 93.8447 49.9445C93.7502 49.5504 93.7019 49.0708 93.7019 48.5064V43.7952C93.7019 43.7479 93.7126 43.7103 93.7325 43.6781C93.7528 43.6467 93.7916 43.6178 93.8495 43.5919C93.9064 43.5656 93.9806 43.5491 94.0728 43.5398C94.164 43.5317 94.2796 43.5265 94.4169 43.5265C94.5557 43.5265 94.6691 43.5317 94.7617 43.5398C94.8543 43.5491 94.9271 43.5656 94.981 43.5919C95.0367 43.6178 95.0745 43.6467 95.0972 43.6781C95.1208 43.7103 95.1331 43.7479 95.1331 43.7952V48.3171C95.1331 48.7718 95.1662 49.1359 95.2323 49.4095C95.2966 49.6827 95.3977 49.9145 95.5328 50.1074C95.668 50.3005 95.84 50.4505 96.046 50.556C96.2529 50.6635 96.4939 50.7171 96.7708 50.7171C97.1261 50.7171 97.4805 50.5907 97.8349 50.336C98.1883 50.0824 98.5616 49.7123 98.9585 49.2228V43.7952C98.9585 43.7479 98.9689 43.7103 98.9878 43.6781C99.0095 43.6467 99.0473 43.6178 99.1049 43.5919C99.1635 43.5656 99.2354 43.5491 99.3251 43.5398C99.4149 43.5317 99.5292 43.5265 99.6748 43.5265C99.8127 43.5265 99.9271 43.5317 100.02 43.5398C100.111 43.5491 100.183 43.5656 100.234 43.5919C100.285 43.6178 100.325 43.6467 100.35 43.6781C100.375 43.7103 100.389 43.7479 100.389 43.7952V51.5619Z" fill="#1B477D"/>
<path fill-rule="evenodd" clip-rule="evenodd" d="M108.232 46.0992C107.846 45.6212 107.473 45.2578 107.116 45.0068C106.756 44.7576 106.382 44.6319 105.991 44.6319C105.629 44.6319 105.322 44.718 105.069 44.8906C104.816 45.0637 104.612 45.2911 104.453 45.5724C104.295 45.8545 104.179 46.1735 104.109 46.5314C104.036 46.8874 104.001 47.2493 104.001 47.6187C104.001 48.0091 104.03 48.3914 104.09 48.7651C104.151 49.1393 104.256 49.4731 104.406 49.7629C104.555 50.0543 104.753 50.2857 105 50.4624C105.248 50.6376 105.557 50.7249 105.931 50.7249C106.12 50.7249 106.302 50.6993 106.478 50.6469C106.653 50.5948 106.831 50.5097 107.017 50.3888C107.2 50.2672 107.393 50.1109 107.594 49.9182C107.794 49.7252 108.009 49.4886 108.232 49.2058V46.0992ZM109.662 51.5615C109.662 51.6081 109.651 51.648 109.632 51.6824C109.612 51.7179 109.578 51.7449 109.529 51.7652C109.48 51.7852 109.416 51.8007 109.336 51.8125C109.254 51.8232 109.156 51.8303 109.043 51.8303C108.921 51.8303 108.821 51.8232 108.74 51.8125C108.658 51.8007 108.594 51.7852 108.542 51.7652C108.491 51.7449 108.453 51.7179 108.43 51.6824C108.407 51.648 108.396 51.6081 108.396 51.5615V50.536C107.987 50.9782 107.565 51.3238 107.124 51.5715C106.684 51.8185 106.203 51.9415 105.68 51.9415C105.111 51.9415 104.626 51.8303 104.223 51.6103C103.823 51.3882 103.496 51.0897 103.245 50.7119C102.997 50.336 102.814 49.8919 102.698 49.3832C102.585 48.8745 102.527 48.337 102.527 47.7736C102.527 47.1063 102.598 46.5026 102.742 45.9654C102.886 45.4271 103.098 44.968 103.38 44.5879C103.662 44.2093 104.01 43.9172 104.427 43.7124C104.843 43.5088 105.324 43.4071 105.87 43.4071C106.325 43.4071 106.74 43.5051 107.116 43.7043C107.491 43.9029 107.863 44.1953 108.232 44.5794V40.0665C108.232 40.0262 108.241 39.987 108.261 39.949C108.282 39.9127 108.321 39.8838 108.378 39.8639C108.435 39.8428 108.509 39.8258 108.598 39.8121C108.687 39.7966 108.8 39.7896 108.939 39.7896C109.081 39.7896 109.199 39.7966 109.29 39.8121C109.384 39.8258 109.455 39.8428 109.507 39.8639C109.559 39.8838 109.596 39.9127 109.624 39.949C109.648 39.987 109.662 40.0262 109.662 40.0665V51.5615Z" fill="#1B477D"/>
<path fill-rule="evenodd" clip-rule="evenodd" d="M113.713 51.5619C113.713 51.6081 113.701 51.6473 113.679 51.6791C113.653 51.7097 113.617 51.7382 113.565 51.7607C113.514 51.7834 113.443 51.8011 113.35 51.8129C113.258 51.8236 113.141 51.8307 112.998 51.8307C112.859 51.8307 112.745 51.8236 112.653 51.8129C112.56 51.8011 112.486 51.7834 112.431 51.7607C112.378 51.7382 112.341 51.7097 112.32 51.6791C112.301 51.6473 112.291 51.6081 112.291 51.5619V43.7952C112.291 43.7542 112.301 43.7169 112.32 43.6818C112.341 43.6484 112.378 43.6193 112.431 43.5968C112.486 43.5731 112.56 43.5549 112.653 43.5442C112.745 43.5328 112.859 43.5264 112.998 43.5264C113.141 43.5264 113.258 43.5328 113.35 43.5442C113.443 43.5549 113.514 43.5731 113.565 43.5968C113.617 43.6193 113.653 43.6484 113.679 43.6818C113.701 43.7169 113.713 43.7542 113.713 43.7952V51.5619ZM113.876 41.1708C113.876 41.5042 113.813 41.7315 113.687 41.8525C113.561 41.9726 113.327 42.0344 112.988 42.0344C112.654 42.0344 112.426 41.9752 112.303 41.8569C112.179 41.7397 112.118 41.5164 112.118 41.1885C112.118 40.8547 112.182 40.6273 112.308 40.5068C112.434 40.3863 112.666 40.3256 113.005 40.3256C113.34 40.3256 113.567 40.3848 113.69 40.5019C113.813 40.6202 113.876 40.8428 113.876 41.1708Z" fill="#1B477D"/>
<path fill-rule="evenodd" clip-rule="evenodd" d="M120.598 46.1942C120.598 45.6652 120.453 45.2522 120.162 44.9561C119.873 44.6588 119.46 44.511 118.926 44.511C118.651 44.511 118.409 44.5576 118.206 44.6481C118.002 44.7409 117.833 44.8673 117.699 45.0285C117.564 45.1894 117.463 45.3764 117.396 45.5857C117.33 45.7953 117.296 46.0153 117.296 46.246C117.296 46.7584 117.442 47.161 117.732 47.4531C118.022 47.7466 118.429 47.8945 118.951 47.8945C119.233 47.8945 119.478 47.8497 119.685 47.7607C119.89 47.6708 120.062 47.5477 120.196 47.3891C120.332 47.2309 120.432 47.0486 120.499 46.8412C120.565 46.6341 120.598 46.4175 120.598 46.1942ZM121.313 52.3474C121.313 52.014 121.176 51.7556 120.904 51.5748C120.63 51.3936 120.262 51.2979 119.796 51.2861L117.789 51.2177C117.605 51.3604 117.454 51.4968 117.335 51.6269C117.219 51.7556 117.125 51.8802 117.055 51.9981C116.986 52.1157 116.939 52.2329 116.913 52.3474C116.888 52.4624 116.875 52.5797 116.875 52.7013C116.875 53.0754 117.066 53.3582 117.444 53.5512C117.823 53.7438 118.352 53.8411 119.029 53.8411C119.46 53.8411 119.821 53.7985 120.111 53.7154C120.401 53.6326 120.635 53.5217 120.813 53.383C120.991 53.2447 121.119 53.0873 121.196 52.9087C121.274 52.7298 121.313 52.5431 121.313 52.3474ZM122.821 44.148C122.821 44.3501 122.793 44.4947 122.739 44.5845C122.685 44.6733 122.614 44.7184 122.528 44.7184H121.415C121.617 44.9254 121.758 45.1539 121.839 45.4049C121.919 45.6545 121.96 45.9147 121.96 46.1857C121.96 46.6341 121.887 47.0309 121.744 47.3761C121.6 47.7218 121.395 48.0138 121.127 48.2516C120.861 48.4907 120.543 48.673 120.177 48.7998C119.808 48.9274 119.399 48.9903 118.951 48.9903C118.635 48.9903 118.336 48.9488 118.052 48.865C117.767 48.7821 117.548 48.6767 117.391 48.5499C117.289 48.6542 117.204 48.7714 117.137 48.9041C117.072 49.0365 117.038 49.1887 117.038 49.3621C117.038 49.5632 117.132 49.73 117.319 49.8624C117.505 49.9951 117.754 50.0661 118.064 50.0779L120.089 50.1633C120.474 50.1762 120.827 50.2291 121.149 50.3242C121.47 50.4188 121.75 50.5537 121.985 50.7301C122.221 50.9038 122.404 51.1205 122.537 51.3763C122.669 51.6325 122.736 51.9308 122.736 52.2694C122.736 52.627 122.66 52.9664 122.51 53.2884C122.361 53.61 122.133 53.8943 121.826 54.1383C121.518 54.383 121.126 54.576 120.65 54.7169C120.173 54.8577 119.61 54.9283 118.959 54.9283C118.334 54.9283 117.801 54.8744 117.362 54.7686C116.922 54.6621 116.562 54.5168 116.28 54.332C115.999 54.1487 115.795 53.9286 115.669 53.6721C115.542 53.4162 115.478 53.1383 115.478 52.8402C115.478 52.6495 115.502 52.4647 115.548 52.2872C115.593 52.1086 115.664 51.9393 115.759 51.7782C115.853 51.6174 115.971 51.4624 116.112 51.3168C116.252 51.17 116.415 51.0247 116.598 50.8805C116.317 50.7356 116.109 50.5559 115.974 50.336C115.84 50.1182 115.773 49.8827 115.773 49.6295C115.773 49.2779 115.845 48.9643 115.987 48.6885C116.132 48.4117 116.31 48.1654 116.522 47.9455C116.344 47.7333 116.203 47.4933 116.099 47.2246C115.996 46.9588 115.945 46.6341 115.945 46.2545C115.945 45.8116 116.019 45.4142 116.169 45.0626C116.317 44.7125 116.524 44.4164 116.789 44.1738C117.052 43.9324 117.371 43.7465 117.74 43.6178C118.112 43.4876 118.515 43.4237 118.951 43.4237C119.187 43.4237 119.407 43.4366 119.611 43.4618C119.815 43.4876 120.006 43.5243 120.183 43.5704H122.528C122.626 43.5704 122.699 43.6178 122.748 43.7124C122.796 43.8071 122.821 43.9527 122.821 44.148Z" fill="#1B477D"/>
<path fill-rule="evenodd" clip-rule="evenodd" d="M126.07 51.5619C126.07 51.6081 126.058 51.6473 126.036 51.6791C126.012 51.7097 125.975 51.7382 125.923 51.7607C125.871 51.7834 125.799 51.8011 125.707 51.8129C125.616 51.8236 125.5 51.8307 125.355 51.8307C125.217 51.8307 125.102 51.8236 125.01 51.8129C124.918 51.8011 124.845 51.7834 124.79 51.7607C124.736 51.7382 124.698 51.7097 124.678 51.6791C124.659 51.6473 124.648 51.6081 124.648 51.5619V43.7952C124.648 43.7542 124.659 43.7169 124.678 43.6818C124.698 43.6484 124.736 43.6193 124.79 43.5968C124.845 43.5731 124.918 43.5549 125.01 43.5442C125.102 43.5328 125.217 43.5264 125.355 43.5264C125.5 43.5264 125.616 43.5328 125.707 43.5442C125.799 43.5549 125.871 43.5731 125.923 43.5968C125.975 43.6193 126.012 43.6484 126.036 43.6818C126.058 43.7169 126.07 43.7542 126.07 43.7952V51.5619ZM126.234 41.1708C126.234 41.5042 126.171 41.7315 126.045 41.8525C125.918 41.9726 125.687 42.0344 125.347 42.0344C125.012 42.0344 124.784 41.9752 124.662 41.8569C124.538 41.7397 124.475 41.5164 124.475 41.1885C124.475 40.8547 124.539 40.6273 124.666 40.5068C124.792 40.3863 125.025 40.3256 125.363 40.3256C125.696 40.3256 125.925 40.3848 126.048 40.5019C126.172 40.6202 126.234 40.8428 126.234 41.1708Z" fill="#1B477D"/>
<path fill-rule="evenodd" clip-rule="evenodd" d="M132.732 50.9929C132.732 51.1597 132.72 51.2908 132.697 51.3892C132.674 51.4876 132.641 51.5596 132.595 51.6059C132.549 51.6521 132.479 51.6946 132.386 51.7349C132.295 51.7752 132.19 51.8081 132.072 51.834C131.955 51.8602 131.828 51.8817 131.698 51.8983C131.566 51.9161 131.433 51.9242 131.3 51.9242C130.899 51.9242 130.554 51.872 130.266 51.7644C129.98 51.658 129.745 51.4968 129.56 51.2813C129.377 51.0661 129.244 50.7929 129.16 50.4613C129.076 50.1301 129.034 49.7407 129.034 49.2923V44.7527H127.948C127.863 44.7527 127.793 44.7065 127.741 44.6142C127.689 44.5217 127.665 44.3731 127.665 44.1657C127.665 44.057 127.672 43.9645 127.687 43.8891C127.7 43.8144 127.72 43.7527 127.741 43.7043C127.765 43.6544 127.795 43.62 127.833 43.6001C127.871 43.5801 127.911 43.5704 127.957 43.5704H129.034V41.7231C129.034 41.6828 129.044 41.6465 129.063 41.6107C129.085 41.5767 129.122 41.5467 129.176 41.5209C129.232 41.4949 129.304 41.4761 129.397 41.4643C129.489 41.4521 129.604 41.4473 129.741 41.4473C129.886 41.4473 130.002 41.4521 130.095 41.4643C130.187 41.4761 130.258 41.4949 130.311 41.5209C130.363 41.5467 130.4 41.5767 130.421 41.6107C130.445 41.6465 130.455 41.6828 130.455 41.7231V43.5704H132.448C132.493 43.5704 132.533 43.5801 132.567 43.6001C132.602 43.62 132.633 43.6544 132.658 43.7043C132.685 43.7527 132.704 43.8144 132.714 43.8891C132.725 43.9645 132.732 44.057 132.732 44.1657C132.732 44.3731 132.707 44.5217 132.654 44.6142C132.602 44.7065 132.533 44.7527 132.448 44.7527H130.455V49.0849C130.455 49.6198 130.537 50.0246 130.694 50.2978C130.851 50.5715 131.134 50.7075 131.542 50.7075C131.674 50.7075 131.793 50.6946 131.896 50.6687C131.999 50.6436 132.091 50.6161 132.171 50.587C132.252 50.5585 132.32 50.5311 132.378 50.5053C132.436 50.479 132.488 50.4661 132.533 50.4661C132.562 50.4661 132.59 50.4731 132.615 50.4875C132.641 50.5016 132.661 50.5286 132.674 50.5692C132.69 50.6095 132.704 50.665 132.714 50.7338C132.725 50.8021 132.732 50.8886 132.732 50.9929Z" fill="#1B477D"/>
<path fill-rule="evenodd" clip-rule="evenodd" d="M84.4299 65.9742C84.4299 66.1409 84.4181 66.2721 84.3955 66.3708C84.3723 66.4677 84.3391 66.5409 84.2929 66.586C84.2472 66.6333 84.1774 66.6758 84.0851 66.7162C83.9943 66.7565 83.8887 66.7893 83.7706 66.8156C83.654 66.8415 83.5274 66.8629 83.3963 66.8803C83.2648 66.8969 83.1312 66.9069 82.9991 66.9069C82.5975 66.9069 82.2524 66.8522 81.9655 66.7457C81.6779 66.6403 81.4428 66.4795 81.2586 66.2629C81.0755 66.0477 80.9418 65.7746 80.8595 65.4429C80.7754 65.1113 80.734 64.7231 80.734 64.2731V59.734H79.6469C79.5621 59.734 79.4923 59.6878 79.4402 59.5957C79.3882 59.5033 79.363 59.3544 79.363 59.1469C79.363 59.0383 79.3704 58.9458 79.3845 58.8711C79.3989 58.7957 79.4177 58.7344 79.4402 58.6855C79.4635 58.636 79.4934 58.6016 79.5311 58.5817C79.5687 58.5613 79.6104 58.5521 79.6562 58.5521H80.734V56.7047C80.734 56.6644 80.7437 56.6278 80.7621 56.5923C80.7836 56.5576 80.82 56.5279 80.8758 56.5021C80.93 56.4762 81.0032 56.457 81.0954 56.4455C81.1877 56.4337 81.3022 56.4289 81.4406 56.4289C81.5834 56.4289 81.7005 56.4337 81.7939 56.4455C81.8862 56.457 81.9571 56.4762 82.009 56.5021C82.0607 56.5279 82.0977 56.5576 82.1213 56.5923C82.1438 56.6278 82.1545 56.6644 82.1545 56.7047V58.5521H84.1464C84.1914 58.5521 84.2317 58.5613 84.2656 58.5817C84.3014 58.6016 84.331 58.636 84.3568 58.6855C84.3827 58.7344 84.4019 58.7957 84.4126 58.8711C84.4244 58.9458 84.4299 59.0383 84.4299 59.1469C84.4299 59.3544 84.4052 59.5033 84.3531 59.5957C84.3014 59.6878 84.2317 59.734 84.1464 59.734H82.1545V64.0665C82.1545 64.6015 82.2346 65.0059 82.3919 65.2795C82.5502 65.5527 82.8326 65.6891 83.2402 65.6891C83.3723 65.6891 83.4908 65.6758 83.5946 65.6499C83.6976 65.6248 83.7894 65.5963 83.8699 65.5682C83.9504 65.5397 84.0191 65.5124 84.077 65.4866C84.1349 65.4606 84.1866 65.4477 84.2317 65.4477C84.2597 65.4477 84.2882 65.4558 84.3128 65.4684C84.3402 65.4829 84.3593 65.5113 84.3746 65.5512C84.3889 65.5908 84.4019 65.6462 84.4126 65.7146C84.4244 65.7837 84.4299 65.8699 84.4299 65.9742Z" fill="#1B477D"/>
<path fill-rule="evenodd" clip-rule="evenodd" d="M91.3074 61.9005C91.325 61.1526 91.1586 60.5655 90.8075 60.1396C90.459 59.7134 89.9404 59.5019 89.2524 59.5019C88.8994 59.5019 88.5893 59.5666 88.3246 59.6993C88.0582 59.8317 87.8359 60.0069 87.6558 60.2258C87.4778 60.445 87.3395 60.6994 87.2413 60.9892C87.1424 61.2801 87.0877 61.5829 87.0759 61.9005H91.3074ZM92.7374 62.3227C92.7374 62.5463 92.6817 62.7075 92.568 62.8022C92.4557 62.8968 92.3273 62.9453 92.1829 62.9453H87.0759C87.0759 63.3764 87.1187 63.7641 87.2047 64.1098C87.2933 64.4543 87.4362 64.7512 87.6385 64.9982C87.8393 65.2459 88.1029 65.4352 88.4262 65.569C88.7495 65.7002 89.1449 65.7665 89.613 65.7665C89.9828 65.7665 90.311 65.7357 90.5997 65.6755C90.8891 65.6164 91.1372 65.5487 91.349 65.4733C91.5602 65.3986 91.7326 65.3298 91.8684 65.2706C92.0047 65.2093 92.1073 65.1797 92.1759 65.1797C92.2173 65.1797 92.2524 65.1905 92.2845 65.2093C92.3166 65.2293 92.3402 65.2599 92.3575 65.3003C92.3742 65.342 92.3885 65.3971 92.3967 65.4696C92.4063 65.5406 92.4111 65.6292 92.4111 65.7324C92.4111 65.8078 92.4073 65.8703 92.4015 65.9261C92.3955 65.9808 92.3885 66.0308 92.379 66.0733C92.3709 66.1158 92.3568 66.1546 92.3365 66.189C92.3166 66.2234 92.2903 66.2574 92.2597 66.2884C92.2276 66.3202 92.1346 66.3724 91.9788 66.4445C91.8238 66.5158 91.623 66.5853 91.376 66.6552C91.1287 66.7251 90.8418 66.7864 90.5181 66.8411C90.1944 66.8958 89.8481 66.924 89.4793 66.924C88.8426 66.924 88.2837 66.8338 87.8039 66.6552C87.324 66.4767 86.9201 66.2141 86.5938 65.8611C86.2656 65.5109 86.0187 65.071 85.8518 64.5405C85.6854 64.0129 85.6023 63.3963 85.6023 62.6946C85.6023 62.0269 85.6875 61.4273 85.8614 60.8945C86.0326 60.3622 86.2822 59.9111 86.6056 59.5396C86.9304 59.1681 87.3232 58.8838 87.7828 58.6852C88.2423 58.4864 88.7566 58.388 89.3247 58.388C89.933 58.388 90.4517 58.4852 90.881 58.6805C91.3088 58.8767 91.6606 59.1392 91.936 59.4708C92.2121 59.8021 92.4144 60.1903 92.5432 60.6364C92.6732 61.0816 92.7374 61.5574 92.7374 62.065V62.3227Z" fill="#1B477D"/>
<path fill-rule="evenodd" clip-rule="evenodd" d="M100.476 65.3607C100.476 65.4592 100.472 65.543 100.469 65.6166C100.461 65.6876 100.452 65.7478 100.437 65.7963C100.423 65.8447 100.405 65.8887 100.386 65.9264C100.366 65.9645 100.319 66.0189 100.248 66.0913C100.176 66.1619 100.055 66.2518 99.8818 66.3571C99.7098 66.4636 99.5161 66.5597 99.3006 66.6429C99.0842 66.7257 98.8508 66.7941 98.5976 66.8462C98.3443 66.8969 98.0835 66.9231 97.8132 66.9231C97.2566 66.9231 96.7614 66.8307 96.3315 66.6459C95.9015 66.4625 95.5395 66.1941 95.2494 65.8403C94.9593 65.4865 94.7382 65.0517 94.586 64.5371C94.4336 64.0225 94.3579 63.4273 94.3579 62.7537C94.3579 61.9884 94.4502 61.3325 94.638 60.7824C94.8251 60.2335 95.0812 59.7824 95.4054 59.4323C95.7285 59.0807 96.1132 58.8201 96.5516 58.6511C96.9911 58.4818 97.4655 58.3967 97.9776 58.3967C98.2243 58.3967 98.4643 58.4193 98.6968 58.4651C98.9302 58.5113 99.1438 58.572 99.3384 58.6463C99.535 58.721 99.7079 58.8075 99.861 58.9044C100.012 59.0023 100.123 59.0866 100.192 59.155C100.26 59.2238 100.308 59.2796 100.334 59.3199C100.359 59.3598 100.382 59.4071 100.4 59.4618C100.417 59.5173 100.427 59.578 100.434 59.6474C100.44 59.7162 100.442 59.8024 100.442 59.9067C100.442 60.1317 100.417 60.2874 100.364 60.378C100.312 60.4664 100.249 60.5103 100.174 60.5103C100.089 60.5103 99.9895 60.463 99.8771 60.3683C99.7646 60.2734 99.6229 60.168 99.4518 60.0533C99.278 59.9373 99.071 59.8334 98.8272 59.7388C98.5806 59.6426 98.2933 59.5957 97.9597 59.5957C97.2764 59.5957 96.7529 59.8593 96.3863 60.3857C96.0215 60.9115 95.8401 61.6749 95.8401 62.6771C95.8401 63.1773 95.8873 63.6166 95.9818 63.9929C96.0772 64.3704 96.2162 64.6854 96.3995 64.9386C96.5838 65.1904 96.8087 65.3797 97.0771 65.5042C97.3435 65.6273 97.6507 65.6887 97.9937 65.6887C98.3226 65.6887 98.6089 65.638 98.8565 65.5338C99.1031 65.4307 99.3167 65.3161 99.4981 65.1929C99.6786 65.0688 99.8317 64.9563 99.9555 64.8558C100.078 64.7552 100.174 64.7053 100.244 64.7053C100.283 64.7053 100.317 64.716 100.348 64.7408C100.376 64.7633 100.401 64.801 100.42 64.8558C100.441 64.9109 100.454 64.98 100.463 65.0643C100.471 65.1467 100.476 65.2462 100.476 65.3607Z" fill="#1B477D"/>
<path fill-rule="evenodd" clip-rule="evenodd" d="M109.042 66.5427C109.042 66.5901 109.03 66.6281 109.008 66.6599C108.984 66.6917 108.947 66.7191 108.895 66.7416C108.844 66.7642 108.771 66.7815 108.68 66.7934C108.588 66.8052 108.475 66.8115 108.335 66.8115C108.191 66.8115 108.074 66.8052 107.983 66.7934C107.89 66.7815 107.819 66.7642 107.767 66.7416C107.715 66.7191 107.678 66.6917 107.654 66.6599C107.632 66.6281 107.62 66.5901 107.62 66.5427V61.9951C107.62 61.5521 107.586 61.195 107.516 60.9251C107.448 60.6542 107.346 60.4212 107.215 60.2257C107.083 60.0308 106.912 59.8811 106.703 59.7776C106.493 59.673 106.251 59.6212 105.974 59.6212C105.619 59.6212 105.262 59.7473 104.906 60.0006C104.549 60.2552 104.176 60.6257 103.786 61.1155V66.5427C103.786 66.5901 103.773 66.6281 103.751 66.6599C103.728 66.6917 103.69 66.7191 103.639 66.7416C103.588 66.7642 103.514 66.7815 103.424 66.7934C103.331 66.8052 103.213 66.8115 103.069 66.8115C102.932 66.8115 102.818 66.8052 102.725 66.7934C102.633 66.7815 102.561 66.7642 102.505 66.7416C102.451 66.7191 102.414 66.6917 102.394 66.6599C102.373 66.6281 102.363 66.5901 102.363 66.5427V55.013C102.363 54.9667 102.373 54.9264 102.394 54.892C102.414 54.858 102.451 54.828 102.505 54.8059C102.561 54.7822 102.633 54.7656 102.725 54.7537C102.818 54.743 102.932 54.736 103.069 54.736C103.213 54.736 103.331 54.743 103.424 54.7537C103.514 54.7656 103.588 54.7822 103.639 54.8059C103.69 54.828 103.728 54.858 103.751 54.892C103.773 54.9264 103.786 54.9667 103.786 55.013V59.6645C104.193 59.233 104.604 58.9132 105.018 58.7025C105.431 58.4918 105.848 58.3879 106.266 58.3879C106.784 58.3879 107.22 58.4755 107.573 58.6508C107.926 58.8257 108.212 59.0611 108.429 59.3536C108.648 59.6471 108.805 59.9913 108.9 60.3857C108.994 60.7798 109.042 61.2553 109.042 61.8139V66.5427Z" fill="#1B477D"/>
<path fill-rule="evenodd" clip-rule="evenodd" d="M118.315 66.5427C118.315 66.5901 118.303 66.6281 118.281 66.6599C118.256 66.6917 118.22 66.7191 118.168 66.7416C118.116 66.7642 118.044 66.7815 117.952 66.7934C117.86 66.8052 117.746 66.8115 117.607 66.8115C117.463 66.8115 117.347 66.8052 117.255 66.7934C117.161 66.7815 117.09 66.7642 117.04 66.7416C116.987 66.7191 116.949 66.6917 116.927 66.6599C116.905 66.6281 116.892 66.5901 116.892 66.5427V61.9951C116.892 61.5521 116.86 61.195 116.789 60.9251C116.72 60.6542 116.619 60.4212 116.488 60.2257C116.356 60.0308 116.184 59.8811 115.975 59.7776C115.764 59.673 115.522 59.6212 115.247 59.6212C114.89 59.6212 114.535 59.7473 114.178 60.0006C113.822 60.2552 113.449 60.6257 113.058 61.1155V66.5427C113.058 66.5901 113.046 66.6281 113.022 66.6599C113 66.6917 112.963 66.7191 112.911 66.7416C112.86 66.7642 112.788 66.7815 112.695 66.7934C112.603 66.8052 112.485 66.8115 112.342 66.8115C112.205 66.8115 112.089 66.8052 111.997 66.7934C111.905 66.7815 111.832 66.7642 111.778 66.7416C111.724 66.7191 111.688 66.6917 111.666 66.6599C111.646 66.6281 111.637 66.5901 111.637 66.5427V58.7761C111.637 58.7299 111.643 58.6911 111.661 58.6589C111.679 58.6282 111.713 58.5997 111.765 58.5739C111.817 58.5476 111.883 58.5299 111.964 58.5218C112.043 58.5121 112.149 58.5088 112.283 58.5088C112.41 58.5088 112.513 58.5121 112.597 58.5218C112.68 58.5299 112.745 58.5476 112.79 58.5739C112.837 58.5997 112.87 58.6282 112.889 58.6589C112.91 58.6911 112.921 58.7299 112.921 58.7761V59.8031C113.357 59.3144 113.791 58.9558 114.225 58.7273C114.659 58.5014 115.097 58.3879 115.539 58.3879C116.056 58.3879 116.491 58.4755 116.845 58.6508C117.2 58.8257 117.484 59.0611 117.703 59.3536C117.921 59.6471 118.078 59.9913 118.172 60.3857C118.268 60.7798 118.315 61.2531 118.315 61.8054V66.5427Z" fill="#1B477D"/>
<path fill-rule="evenodd" clip-rule="evenodd" d="M126.648 62.6683C126.648 62.2484 126.609 61.8517 126.53 61.4779C126.452 61.1027 126.325 60.7751 126.144 60.4934C125.964 60.2121 125.721 59.988 125.414 59.8246C125.107 59.6605 124.723 59.5784 124.265 59.5784C123.842 59.5784 123.478 59.6545 123.174 59.8036C122.871 59.9526 122.619 60.1647 122.423 60.4376C122.225 60.7108 122.079 61.0339 121.983 61.4081C121.888 61.7822 121.841 62.1918 121.841 62.6344C121.841 63.0602 121.878 63.4599 121.956 63.834C122.035 64.2067 122.165 64.5335 122.349 64.8129C122.532 65.0918 122.776 65.3135 123.083 65.4777C123.391 65.6426 123.772 65.7239 124.231 65.7239C124.649 65.7239 125.01 65.6492 125.317 65.4991C125.625 65.3501 125.878 65.1395 126.074 64.868C126.271 64.5986 126.416 64.2769 126.508 63.9016C126.603 63.529 126.648 63.1168 126.648 62.6683ZM128.122 62.5726C128.122 63.2067 128.039 63.7893 127.873 64.3201C127.705 64.8544 127.458 65.3121 127.125 65.6977C126.795 66.0836 126.382 66.3846 125.884 66.5997C125.388 66.8149 124.812 66.924 124.158 66.924C123.52 66.924 122.964 66.8293 122.49 66.6375C122.017 66.4496 121.621 66.1724 121.306 65.8108C120.989 65.4481 120.754 65.0082 120.598 64.4898C120.444 63.9712 120.367 63.3845 120.367 62.7286C120.367 62.0968 120.449 61.5134 120.611 60.981C120.776 60.4494 121.021 59.9906 121.353 59.6047C121.683 59.2191 122.094 58.9208 122.588 58.7063C123.083 58.4945 123.661 58.388 124.321 58.388C124.958 58.388 125.515 58.483 125.989 58.6723C126.463 58.8626 126.859 59.1384 127.174 59.5019C127.49 59.8638 127.727 60.3026 127.886 60.821C128.043 61.3385 128.122 61.923 128.122 62.5726Z" fill="#1B477D"/>
<path fill-rule="evenodd" clip-rule="evenodd" d="M131.638 66.5427C131.638 66.5901 131.626 66.6281 131.604 66.6599C131.58 66.6917 131.543 66.7191 131.491 66.7416C131.439 66.7642 131.367 66.7815 131.275 66.7934C131.184 66.8052 131.067 66.8115 130.923 66.8115C130.784 66.8115 130.67 66.8052 130.578 66.7934C130.486 66.7815 130.413 66.7642 130.358 66.7416C130.304 66.7191 130.265 66.6917 130.246 66.6599C130.227 66.6281 130.216 66.5901 130.216 66.5427V55.013C130.216 54.9667 130.227 54.9264 130.246 54.892C130.265 54.858 130.304 54.828 130.358 54.8059C130.413 54.7822 130.486 54.7656 130.578 54.7537C130.67 54.743 130.784 54.736 130.923 54.736C131.067 54.736 131.184 54.743 131.275 54.7537C131.367 54.7656 131.439 54.7822 131.491 54.8059C131.543 54.828 131.58 54.858 131.604 54.892C131.626 54.9264 131.638 54.9667 131.638 55.013V66.5427Z" fill="#1B477D"/>
<path fill-rule="evenodd" clip-rule="evenodd" d="M140.005 62.6683C140.005 62.2484 139.966 61.8517 139.887 61.4779C139.81 61.1027 139.681 60.7751 139.501 60.4934C139.32 60.2121 139.078 59.988 138.769 59.8246C138.462 59.6605 138.08 59.5784 137.621 59.5784C137.199 59.5784 136.834 59.6545 136.532 59.8036C136.227 59.9526 135.977 60.1647 135.779 60.4376C135.582 60.7108 135.435 61.0339 135.339 61.4081C135.244 61.7822 135.197 62.1918 135.197 62.6344C135.197 63.0602 135.236 63.4599 135.314 63.834C135.392 64.2067 135.523 64.5335 135.705 64.8129C135.887 65.0918 136.132 65.3135 136.44 65.4777C136.747 65.6426 137.129 65.7239 137.587 65.7239C138.006 65.7239 138.367 65.6492 138.674 65.4991C138.981 65.3501 139.234 65.1395 139.431 64.868C139.628 64.5986 139.773 64.2769 139.866 63.9016C139.959 63.529 140.005 63.1168 140.005 62.6683ZM141.478 62.5726C141.478 63.2067 141.396 63.7893 141.228 64.3201C141.062 64.8544 140.814 65.3121 140.484 65.6977C140.152 66.0836 139.738 66.3846 139.241 66.5997C138.746 66.8149 138.168 66.924 137.515 66.924C136.877 66.924 136.322 66.8293 135.847 66.6375C135.373 66.4496 134.978 66.1724 134.662 65.8108C134.346 65.4481 134.111 65.0082 133.955 64.4898C133.801 63.9712 133.723 63.3845 133.723 62.7286C133.723 62.0968 133.804 61.5134 133.969 60.981C134.132 60.4494 134.379 59.9906 134.71 59.6047C135.04 59.2191 135.451 58.9208 135.945 58.7063C136.44 58.4945 137.017 58.388 137.678 58.388C138.316 58.388 138.872 58.483 139.345 58.6723C139.82 58.8626 140.215 59.1384 140.53 59.5019C140.847 59.8638 141.084 60.3026 141.243 60.821C141.4 61.3385 141.478 61.923 141.478 62.5726Z" fill="#1B477D"/>
<path fill-rule="evenodd" clip-rule="evenodd" d="M147.829 61.1758C147.829 60.6456 147.684 60.2338 147.394 59.9369C147.104 59.6408 146.691 59.4929 146.157 59.4929C145.883 59.4929 145.642 59.538 145.439 59.6301C145.234 59.7214 145.064 59.8489 144.929 60.0101C144.795 60.1713 144.695 60.3565 144.628 60.5661C144.562 60.7773 144.529 60.9972 144.529 61.2265C144.529 61.7392 144.674 62.1415 144.964 62.4346C145.253 62.7282 145.661 62.8764 146.183 62.8764C146.466 62.8764 146.709 62.8313 146.917 62.7415C147.123 62.6527 147.294 62.5286 147.429 62.3711C147.564 62.2124 147.664 62.0302 147.73 61.822C147.797 61.6161 147.829 61.3991 147.829 61.1758ZM148.545 67.3294C148.545 66.9945 148.408 66.7375 148.137 66.5556C147.862 66.3756 147.494 66.2784 147.029 66.2666L145.021 66.1981C144.836 66.3412 144.686 66.4784 144.568 66.6074C144.45 66.7375 144.358 66.8606 144.288 66.9801C144.218 67.0961 144.171 67.2134 144.146 67.3294C144.119 67.444 144.108 67.5616 144.108 67.6833C144.108 68.0574 144.297 68.3402 144.676 68.5332C145.054 68.7246 145.583 68.8215 146.261 68.8215C146.691 68.8215 147.053 68.7801 147.343 68.6973C147.634 68.6134 147.867 68.5021 148.046 68.3635C148.223 68.2263 148.35 68.0677 148.428 67.8891C148.507 67.7106 148.545 67.5247 148.545 67.3294ZM150.053 59.1295C150.053 59.3307 150.024 59.4763 149.971 59.565C149.918 59.6538 149.847 59.6988 149.76 59.6988H148.648C148.849 59.9069 148.99 60.1355 149.071 60.3865C149.15 60.6364 149.19 60.8963 149.19 61.1673C149.19 61.6161 149.12 62.0125 148.976 62.3581C148.833 62.7027 148.627 62.9947 148.36 63.2335C148.093 63.4727 147.774 63.655 147.408 63.7814C147.04 63.9083 146.631 63.9711 146.183 63.9711C145.867 63.9711 145.568 63.9304 145.283 63.8468C144.999 63.7626 144.78 63.6572 144.624 63.5308C144.521 63.6346 144.436 63.7529 144.37 63.8846C144.304 64.0169 144.27 64.1697 144.27 64.3427C144.27 64.5448 144.364 64.7104 144.551 64.8432C144.737 64.9752 144.987 65.0465 145.296 65.0595L147.321 65.1449C147.706 65.1567 148.059 65.21 148.381 65.3046C148.702 65.3993 148.981 65.5353 149.218 65.7105C149.454 65.8857 149.636 66.102 149.769 66.3579C149.901 66.6145 149.967 66.9117 149.967 67.251C149.967 67.6089 149.892 67.9483 149.742 68.2703C149.593 68.5919 149.366 68.8747 149.057 69.1199C148.75 69.3635 148.357 69.558 147.881 69.6974C147.405 69.8397 146.842 69.9092 146.191 69.9092C145.566 69.9092 145.034 69.856 144.593 69.7491C144.155 69.643 143.794 69.4973 143.512 69.3128C143.23 69.1295 143.028 68.9096 142.9 68.6536C142.774 68.3982 142.711 68.1199 142.711 67.8218C142.711 67.6315 142.734 67.4467 142.78 67.2677C142.826 67.0906 142.896 66.9202 142.991 66.759C143.085 66.5978 143.203 66.4444 143.344 66.2976C143.485 66.1504 143.648 66.0052 143.831 65.8606C143.549 65.7175 143.341 65.5368 143.207 65.3175C143.072 65.0987 143.004 64.8632 143.004 64.6096C143.004 64.2583 143.077 63.9449 143.219 63.669C143.363 63.3936 143.541 63.1459 143.754 62.9275C143.574 62.7145 143.435 62.4749 143.331 62.2065C143.227 61.9388 143.176 61.6161 143.176 61.2346C143.176 60.7924 143.251 60.3946 143.4 60.0446C143.549 59.6944 143.756 59.3972 144.02 59.1558C144.284 58.9132 144.602 58.7284 144.973 58.5997C145.343 58.4692 145.747 58.4056 146.183 58.4056C146.419 58.4056 146.639 58.4171 146.843 58.4434C147.047 58.4692 147.239 58.5062 147.416 58.5509H149.76C149.858 58.5509 149.93 58.5997 149.98 58.694C150.028 58.789 150.053 58.9343 150.053 59.1295Z" fill="#1B477D"/>
<path fill-rule="evenodd" clip-rule="evenodd" d="M153.303 66.5427C153.303 66.5901 153.29 66.6281 153.268 66.6599C153.245 66.6917 153.208 66.7191 153.156 66.7416C153.104 66.7642 153.032 66.7815 152.94 66.7934C152.848 66.8052 152.731 66.8115 152.587 66.8115C152.449 66.8115 152.335 66.8052 152.242 66.7934C152.15 66.7815 152.077 66.7642 152.023 66.7416C151.967 66.7191 151.931 66.6917 151.911 66.6599C151.891 66.6281 151.88 66.5901 151.88 66.5427V58.7761C151.88 58.7357 151.891 58.6981 151.911 58.6637C151.931 58.6297 151.967 58.6013 152.023 58.5772C152.077 58.5546 152.15 58.5369 152.242 58.5266C152.335 58.5144 152.449 58.5088 152.587 58.5088C152.731 58.5088 152.848 58.5144 152.94 58.5266C153.032 58.5369 153.104 58.5546 153.156 58.5772C153.208 58.6013 153.245 58.6297 153.268 58.6637C153.29 58.6981 153.303 58.7357 153.303 58.7761V66.5427ZM153.466 56.1524C153.466 56.4862 153.403 56.7135 153.276 56.8341C153.151 56.9549 152.917 57.0152 152.578 57.0152C152.245 57.0152 152.017 56.9561 151.894 56.8388C151.77 56.7205 151.708 56.4969 151.708 56.1689C151.708 55.8366 151.771 55.6082 151.897 55.4872C152.024 55.3671 152.257 55.3065 152.595 55.3065C152.929 55.3065 153.157 55.3656 153.28 55.4839C153.404 55.6007 153.466 55.8233 153.466 56.1524Z" fill="#1B477D"/>
<path fill-rule="evenodd" clip-rule="evenodd" d="M161.119 61.9005C161.137 61.1526 160.97 60.5655 160.619 60.1396C160.27 59.7134 159.752 59.5019 159.064 59.5019C158.711 59.5019 158.402 59.5666 158.137 59.6993C157.87 59.8317 157.648 60.0069 157.468 60.2258C157.29 60.445 157.151 60.6994 157.052 60.9892C156.954 61.2801 156.899 61.5829 156.888 61.9005H161.119ZM162.549 62.3227C162.549 62.5463 162.492 62.7075 162.379 62.8022C162.268 62.8968 162.138 62.9453 161.995 62.9453H156.888C156.888 63.3764 156.931 63.7641 157.017 64.1098C157.104 64.4543 157.248 64.7512 157.45 64.9982C157.652 65.2459 157.914 65.4352 158.238 65.569C158.561 65.7002 158.957 65.7665 159.423 65.7665C159.793 65.7665 160.124 65.7357 160.411 65.6755C160.701 65.6164 160.949 65.5487 161.16 65.4733C161.372 65.3986 161.544 65.3298 161.68 65.2706C161.816 65.2093 161.919 65.1797 161.987 65.1797C162.029 65.1797 162.064 65.1905 162.096 65.2093C162.128 65.2293 162.152 65.2599 162.17 65.3003C162.186 65.342 162.2 65.3971 162.208 65.4696C162.218 65.5406 162.223 65.6292 162.223 65.7324C162.223 65.8078 162.219 65.8703 162.213 65.9261C162.207 65.9808 162.2 66.0308 162.19 66.0733C162.182 66.1158 162.168 66.1546 162.148 66.189C162.128 66.2234 162.103 66.2574 162.071 66.2884C162.038 66.3202 161.946 66.3724 161.79 66.4445C161.636 66.5158 161.434 66.5853 161.188 66.6552C160.94 66.7251 160.654 66.7864 160.33 66.8411C160.006 66.8958 159.66 66.924 159.291 66.924C158.654 66.924 158.094 66.8338 157.615 66.6552C157.137 66.4767 156.732 66.2141 156.404 65.8611C156.076 65.5109 155.831 65.071 155.663 64.5405C155.497 64.0129 155.413 63.3963 155.413 62.6946C155.413 62.0269 155.5 61.4273 155.673 60.8945C155.844 60.3622 156.092 59.9111 156.417 59.5396C156.742 59.1681 157.135 58.8838 157.594 58.6852C158.053 58.4864 158.567 58.388 159.136 58.388C159.745 58.388 160.264 58.4852 160.693 58.6805C161.121 58.8767 161.472 59.1392 161.747 59.4708C162.024 59.8021 162.226 60.1903 162.355 60.6364C162.483 61.0816 162.549 61.5574 162.549 62.065V62.3227Z" fill="#1B477D"/>
<path fill-rule="evenodd" clip-rule="evenodd" d="M169.58 64.4293C169.58 64.8252 169.507 65.1805 169.361 65.4907C169.214 65.802 169.007 66.0629 168.735 66.2762C168.466 66.4892 168.144 66.6501 167.771 66.7591C167.396 66.8693 166.987 66.9236 166.539 66.9236C166.262 66.9236 166.001 66.9026 165.749 66.8586C165.501 66.816 165.276 66.7602 165.077 66.6951C164.879 66.6278 164.713 66.5591 164.574 66.4881C164.437 66.416 164.335 66.3509 164.273 66.2929C164.209 66.236 164.163 66.1542 164.134 66.0526C164.105 65.9483 164.091 65.8075 164.091 65.6289C164.091 65.5202 164.096 65.4263 164.109 65.352C164.121 65.2777 164.134 65.2171 164.151 65.1709C164.168 65.125 164.193 65.0918 164.224 65.0714C164.256 65.0515 164.292 65.0418 164.334 65.0418C164.396 65.0418 164.489 65.081 164.613 65.1591C164.736 65.2363 164.888 65.3217 165.069 65.4137C165.25 65.5043 165.465 65.5897 165.712 65.667C165.959 65.745 166.242 65.7842 166.564 65.7842C166.805 65.7842 167.025 65.758 167.22 65.7058C167.414 65.654 167.584 65.5779 167.728 65.4773C167.872 65.3767 167.981 65.2481 168.06 65.0939C168.137 64.938 168.177 64.7546 168.177 64.5412C168.177 64.3224 168.12 64.139 168.008 63.9885C167.896 63.8399 167.748 63.7072 167.564 63.5911C167.38 63.4773 167.173 63.3745 166.945 63.2858C166.713 63.1959 166.477 63.1024 166.233 63.004C165.988 62.9072 165.749 62.7971 165.519 62.6728C165.284 62.5497 165.076 62.3985 164.892 62.2195C164.709 62.041 164.561 61.828 164.449 61.5818C164.337 61.3334 164.281 61.0373 164.281 60.6919C164.281 60.3866 164.339 60.0942 164.457 59.8158C164.575 59.537 164.751 59.2916 164.988 59.0823C165.223 58.8719 165.519 58.7038 165.87 58.5773C166.224 58.4505 166.637 58.3876 167.108 58.3876C167.314 58.3876 167.521 58.4057 167.728 58.4387C167.935 58.4742 168.121 58.517 168.287 58.5688C168.455 58.6209 168.596 58.6767 168.715 58.737C168.831 58.7973 168.921 58.8505 168.982 58.8967C169.042 58.9429 169.082 58.9832 169.102 59.0172C169.122 59.0531 169.136 59.0908 169.146 59.1333C169.154 59.177 169.163 59.2302 169.17 59.2945C169.18 59.3574 169.185 59.435 169.185 59.5274C169.185 59.6243 169.18 59.7097 169.17 59.7807C169.163 59.8539 169.148 59.9134 169.128 59.9584C169.11 60.0043 169.084 60.0376 169.056 60.0575C169.025 60.0779 168.994 60.0886 168.96 60.0886C168.908 60.0886 168.834 60.0565 168.735 59.9925C168.639 59.9297 168.512 59.8624 168.357 59.7903C168.201 59.7178 168.019 59.6506 167.809 59.5866C167.6 59.5237 167.36 59.493 167.091 59.493C166.847 59.493 166.637 59.5193 166.452 59.5732C166.268 59.6291 166.118 59.7059 166.001 59.8065C165.882 59.9082 165.794 60.0269 165.732 60.1651C165.672 60.3038 165.642 60.4543 165.642 60.6139C165.642 60.8387 165.7 61.0266 165.813 61.1792C165.93 61.3319 166.078 61.4657 166.262 61.5818C166.447 61.6953 166.655 61.7996 166.893 61.892C167.128 61.9841 167.368 62.0787 167.612 62.1759C167.856 62.2739 168.097 62.383 168.335 62.5046C168.573 62.6255 168.785 62.7723 168.969 62.9453C169.153 63.1165 169.3 63.3246 169.411 63.5664C169.523 63.8078 169.58 64.0954 169.58 64.4293Z" fill="#1B477D"/>
<defs>
<linearGradient id="paint0_linear_13_7811" x1="47.0799" y1="52.2485" x2="22.4646" y2="52.2475" gradientUnits="userSpaceOnUse">
<stop stop-color="#F47216"/>
<stop offset="1" stop-color="white"/>
</linearGradient>
<linearGradient id="paint1_linear_13_7811" x1="34.0682" y1="52.9687" x2="8.50783" y2="52.9687" gradientUnits="userSpaceOnUse">
<stop stop-color="#62AC62"/>
<stop offset="1" stop-color="white"/>
</linearGradient>
<linearGradient id="paint2_linear_13_7811" x1="54.2288" y1="53.971" x2="28.8896" y2="53.9691" gradientUnits="userSpaceOnUse">
<stop stop-color="#FCD006"/>
<stop offset="1" stop-color="white"/>
</linearGradient>
<linearGradient id="paint3_linear_13_7811" x1="40.5991" y1="52.9687" x2="15.9393" y2="52.9687" gradientUnits="userSpaceOnUse">
<stop stop-color="#1B477D"/>
<stop offset="1" stop-color="white"/>
</linearGradient>
</defs>
</svg>
